PathFileType	4	(X/Y/Z)	Exemple_fichier.trc																																					
DataRate	CameraRate	NumFrames	NumMarkers	Units	OrigDataRate	OrigDataStartFrame	OrigNumFrames																																	
100	100	17	13	m	100	751	1000																																	
Frame#	Time	C7			T10			CLAV			STRN			RSHO			RUPA			RELB			RFRA			RWRA			RWRB			RFIN0			RFINx			RFINy		
		X1	Y1	Z1	X2	Y2	Z2	X3	Y3	Z3	X4	Y4	Z4	X5	Y5	Z5	X6	Y6	Z6	X7	Y7	Z7	X8	Y8	Z8	X9	Y9	Z9	X10	Y10	Z10	X11	Y11	Z11	X12	Y12	Z12	X13	Y13	Z13
																																								
751	7.5	0.4192534	1.2897	-0.09081706	0.424716	1.150212	-0.05880559	0.4318635	1.23159	-0.2162917	0.4365199	1.101949	-0.3211867	0.5765484	1.263161	-0.1602257	0.69465	1.117356	-0.2374191	0.745477	1.050866	-0.2487329	0.6295441	1.124461	-0.3474829	0.5680675	1.13498	-0.359667	0.5953225	1.129416	-0.3995595	0.5559523	1.148171	-0.4337247	0.5419034	1.158443	-0.4444741	0.5462279	1.166626	-0.4099331
752	7.51	0.4177792	1.289444	-0.09003417	0.4233323	1.149869	-0.05834001	0.4307057	1.231669	-0.2155993	0.4357451	1.102218	-0.3207282	0.5750986	1.263617	-0.1591351	0.6945282	1.120869	-0.237849	0.7454935	1.054849	-0.250943	0.6306542	1.132175	-0.3479084	0.5691591	1.142923	-0.3605332	0.5972579	1.139521	-0.4000711	0.5587142	1.159992	-0.4338705	0.5448905	1.170806	-0.4443817	0.5483388	1.177075	-0.4093937
753	7.52	0.4163034	1.289178	-0.08924067	0.4219585	1.149518	-0.05787493	0.4295479	1.231751	-0.2148982	0.4349735	1.102476	-0.3202763	0.573635	1.264074	-0.1580419	0.6943108	1.12441	-0.2383429	0.7454059	1.05893	-0.2532512	0.6315985	1.139891	-0.3482777	0.5700861	1.150844	-0.3613822	0.5990364	1.149648	-0.4004148	0.5612852	1.171826	-0.4337226	0.5476871	1.183176	-0.4439559	0.5502124	1.187444	-0.4086471
754	7.53	0.4148274	1.288904	-0.08843995	0.4206007	1.149156	-0.05741399	0.4283909	1.231834	-0.2141927	0.4342067	1.102723	-0.3198351	0.5721582	1.264531	-0.1569541	0.6939905	1.127971	-0.2389101	0.7452152	1.063107	-0.2556483	0.6323516	1.147572	-0.3485813	0.5708273	1.158698	-0.362203	0.6006237	1.159742	-0.400581	0.563623	1.183606	-0.4332699	0.5502457	1.195482	-0.4431839	0.5518082	1.197669	-0.4076871
755	7.54	0.4133531	1.28862	-0.08763588	0.4192631	1.148785	-0.05696139	0.4272356	1.231919	-0.2134875	0.4334453	1.10296	-0.3194085	0.5706676	1.264986	-0.1558799	0.6935612	1.131547	-0.2395559	0.7449235	1.067376	-0.2581212	0.6328949	1.155181	-0.3488159	0.5713678	1.166447	-0.3629922	0.6019928	1.169748	-0.4005686	0.5656922	1.19526	-0.4325186	0.5525243	1.207647	-0.4420731	0.5530978	1.20769	-0.4065256
756	7.55	0.4118823	1.288329	-0.08683275	0.4179476	1.148406	-0.05652087	0.4260831	1.232005	-0.2127873	0.4326878	1.103186	-0.3190012	0.5691621	1.26544	-0.1548273	0.6930188	1.135131	-0.2402812	0.7445338	1.071731	-0.2606526	0.6332166	1.162685	-0.3489834	0.5716998	1.174055	-0.3637528	0.6031252	1.179611	-0.4003848	0.5674655	1.206708	-0.4314921	0.5544875	1.219585	-0.4406525	0.5540653	1.217452	-0.4051926
757	7.56	0.4104176	1.28803	-0.08603535	0.4166545	1.14802	-0.05609523	0.4249347	1.232091	-0.2120966	0.4319307	1.103403	-0.3186178	0.5676404	1.265891	-0.1538033	0.6923615	1.138718	-0.2410827	0.7440507	1.076162	-0.2632206	0.6333122	1.170049	-0.34909	0.5718217	1.181493	-0.3644929	0.6040109	1.189277	-0.4000445	0.5689235	1.217874	-0.4302303	0.5561094	1.231208	-0.4389711	0.5547071	1.226909	-0.403732
758	7.57	0.4089611	1.287724	-0.08524893	0.4153844	1.14763	-0.05568674	0.4237915	1.232176	-0.2114194	0.4311689	1.103613	-0.318262	0.5661014	1.266337	-0.1528136	0.6915895	1.142298	-0.2419534	0.7434809	1.080655	-0.2657994	0.6331833	1.17724	-0.3491451	0.5717372	1.188735	-0.3652234	0.6046476	1.198694	-0.3995687	0.5700568	1.228681	-0.428784	0.5573755	1.242431	-0.4370926	0.5550297	1.23602	-0.4021971
759	7.58	0.4075153	1.287413	-0.08447887	0.4141385	1.147241	-0.05529737	0.4226545	1.232259	-0.21076	0.4303972	1.103818	-0.3179355	0.5645448	1.266779	-0.151862	0.6907055	1.145863	-0.2428837	0.7428329	1.085194	-0.2683606	0.6328382	1.18423	-0.3491607	0.5714542	1.19576	-0.3659562	0.6050396	1.207818	-0.3989833	0.5708671	1.239065	-0.4272106	0.5582852	1.253184	-0.4350882	0.5550475	1.244749	-0.4006449
760	7.59	0.4060822	1.2871	-0.08373038	0.4129183	1.146855	-0.05492889	0.421525	1.23234	-0.2101227	0.4296129	1.104021	-0.3176369	0.5629708	1.267216	-0.1509514	0.6897147	1.1494	-0.2438623	0.7421165	1.089759	-0.2708753	0.6322906	1.190991	-0.349151	0.5709837	1.202549	-0.3667017	0.6051979	1.216605	-0.3983176	0.5713667	1.248974	-0.425569	0.5588518	1.26341	-0.4330296	0.5547813	1.253069	-0.3991319
761	7.6	0.4046646	1.286786	-0.08300833	0.4117259	1.146477	-0.05458294	0.4204045	1.232416	-0.2095116	0.4288165	1.104223	-0.3173632	0.5613806	1.267648	-0.150084	0.6886241	1.1529	-0.2448761	0.7413422	1.094333	-0.2733156	0.6315588	1.197501	-0.3491314	0.5703403	1.209087	-0.3674688	0.6051387	1.225023	-0.3976018	0.5715777	1.25837	-0.4239162	0.5591	1.273069	-0.430985	0.5542576	1.260954	-0.39771
762	7.61	0.4032657	1.286475	-0.08231696	0.4105624	1.146108	-0.05426071	0.4192946	1.232488	-0.2089299	0.4280099	1.104424	-0.3171116	0.5597778	1.268073	-0.1492624	0.6874432	1.15635	-0.2459115	0.740521	1.098894	-0.2756566	0.6306651	1.20374	-0.3491176	0.5695439	1.215354	-0.3682661	0.6048834	1.233043	-0.3968663	0.5715288	1.267227	-0.4223044	0.5590627	1.282134	-0.429016	0.5535078	1.268389	-0.3964235
763	7.62	0.4018887	1.286167	-0.08165951	0.4094282	1.145751	-0.05396281	0.4181966	1.232553	-0.2083797	0.4271948	1.10462	-0.3168807	0.5581693	1.268493	-0.1484889	0.6861828	1.159739	-0.2469543	0.7396642	1.103421	-0.2778774	0.6296347	1.209691	-0.3491253	0.56862	1.221335	-0.3691022	0.6044573	1.240644	-0.3961406	0.571253	1.27553	-0.4207793	0.5587768	1.290592	-0.4271746	0.5525662	1.275361	-0.3953069
764	7.63	0.4005349	1.285866	-0.08103837	0.4083228	1.145408	-0.05368916	0.4171109	1.232609	-0.2078619	0.426373	1.104809	-0.3166686	0.556565	1.268907	-0.1477652	0.6848552	1.163054	-0.2479908	0.7387825	1.107891	-0.2799605	0.6284957	1.21534	-0.349168	0.5675984	1.227011	-0.3699847	0.6038886	1.247813	-0.3954523	0.5707852	1.283273	-0.4193782	0.5582818	1.298438	-0.4255009	0.5514691	1.281864	-0.3943839
765	7.64	0.3992039	1.285573	-0.08045502	0.4072449	1.145081	-0.05343875	0.4160373	1.232656	-0.2073764	0.4255462	1.104987	-0.316473	0.5549761	1.269315	-0.1470923	0.6834743	1.166285	-0.2490072	0.7378871	1.112278	-0.2818924	0.6272788	1.220676	-0.3492574	0.5665109	1.232369	-0.3709186	0.6032076	1.254537	-0.3948261	0.5701608	1.290457	-0.41813	0.5576181	1.305681	-0.4240226	0.5502536	1.287901	-0.393668
766	7.65	0.3978946	1.28529	-0.07990995	0.4061921	1.14477	-0.05320945	0.4149754	1.232693	-0.2069228	0.424717	1.105152	-0.3162914	0.5534122	1.269714	-0.1464704	0.6820556	1.169418	-0.2499906	0.7369883	1.116559	-0.2836628	0.6260166	1.225693	-0.3494027	0.5653876	1.237399	-0.3719054	0.602446	1.260812	-0.3942831	0.5694154	1.297086	-0.4170552	0.5568253	1.312331	-0.4227567	0.5489573	1.293473	-0.3931638
767	7.66	0.3966063	1.285017	-0.0794028	0.4051622	1.144477	-0.05299866	0.4139244	1.232721	-0.2065004	0.4238885	1.105302	-0.3161215	0.5518808	1.270104	-0.1458994	0.680616	1.17244	-0.2509286	0.7360966	1.120707	-0.2852648	0.624742	1.230387	-0.3496111	0.5642562	1.242095	-0.3729438	0.6016361	1.266635	-0.3938399	0.5685844	1.303171	-0.4161667	0.5559406	1.318406	-0.4217117	0.5476168	1.298589	-0.3928685
